<svg width="16" height="12" viewBox="0 0 16 12" fill="none" xmlns="http://www.w3.org/2000/svg">
<path d="M14.34 1.9125H11.8087L10.2937 0.3825C10.2937 0.3825 10.2862 0.375 10.2825 0.375L10.275 0.3675C10.05 0.1425 9.74625 0 9.40125 0H6.25125C5.88375 0 5.5575 0.1575 5.32875 0.40875V0.4125L3.8475 1.9125H1.26C0.5625 1.9125 0 2.46 0 3.1575V10.7362C0 11.4338 0.5625 12 1.26 12H14.34C15.0337 12 15.6 11.4338 15.6 10.7362V3.1575C15.6 2.46 15.0337 1.9125 14.34 1.9125ZM7.8 10.1063C5.89125 10.1063 4.335 8.54625 4.335 6.63375C4.335 4.7175 5.89125 3.16125 7.8 3.16125C9.7125 3.16125 11.265 4.7175 11.265 6.63375C11.265 8.54625 9.7125 10.1063 7.8 10.1063ZM14.1037 3.91875C13.815 3.91875 13.5787 3.6825 13.5787 3.39C13.5787 3.0975 13.815 2.86125 14.1037 2.86125C14.3925 2.86125 14.6287 3.0975 14.6287 3.39C14.6287 3.6825 14.3925 3.91875 14.1037 3.91875Z" fill="#101010"/>
</svg>
