<svg width="16" height="16" viewBox="0 0 16 16" fill="none" xmlns="http://www.w3.org/2000/svg">
<path fill-rule="evenodd" clip-rule="evenodd" d="M8.00085 0C5.82814 0 5.55546 0.00950022 4.70211 0.0483345C3.85042 0.0873354 3.26908 0.222172 2.7604 0.42001C2.23422 0.624348 1.78788 0.897687 1.3432 1.34253C0.898188 1.78721 0.624848 2.23355 0.419843 2.75956C0.221505 3.26841 0.086502 3.84992 0.0481678 4.70128C0.0100002 5.55463 0 5.82747 0 8.00019C0 10.1729 0.00966687 10.4447 0.0483345 11.2981C0.087502 12.1498 0.222339 12.7311 0.42001 13.2398C0.624515 13.766 0.897854 14.2123 1.3427 14.657C1.78721 15.102 2.23355 15.376 2.7594 15.5804C3.26841 15.7782 3.84992 15.913 4.70144 15.952C5.5548 15.9909 5.8273 16.0004 7.99985 16.0004C10.1727 16.0004 10.4446 15.9909 11.2979 15.952C12.1496 15.913 12.7316 15.7782 13.2406 15.5804C13.7667 15.376 14.2123 15.102 14.6568 14.657C15.1019 14.2123 15.3752 13.766 15.5802 13.24C15.7769 12.7311 15.9119 12.1496 15.9519 11.2983C15.9902 10.4449 16.0002 10.1729 16.0002 8.00019C16.0002 5.82747 15.9902 5.5548 15.9519 4.70144C15.9119 3.84976 15.7769 3.26841 15.5802 2.75973C15.3752 2.23355 15.1019 1.78721 14.6568 1.34253C14.2118 0.897521 13.7668 0.624181 13.2401 0.42001C12.7301 0.222172 12.1485 0.0873354 11.2968 0.0483345C10.4434 0.00950022 10.1717 0 7.99835 0H8.00085ZM7.73409 1.44162H7.73423L8.00087 1.4417C10.1369 1.4417 10.3901 1.44936 11.2336 1.4877C12.0136 1.52337 12.437 1.6537 12.719 1.7632C13.0923 1.90821 13.3585 2.08155 13.6383 2.36155C13.9183 2.64156 14.0917 2.90823 14.237 3.28157C14.3465 3.56325 14.477 3.98659 14.5125 4.76661C14.5509 5.60996 14.5592 5.8633 14.5592 7.99835C14.5592 10.1334 14.5509 10.3867 14.5125 11.2301C14.4769 12.0101 14.3465 12.4335 14.237 12.7151C14.092 13.0885 13.9183 13.3543 13.6383 13.6342C13.3583 13.9142 13.0925 14.0875 12.719 14.2325C12.4373 14.3425 12.0136 14.4725 11.2336 14.5082C10.3903 14.5465 10.1369 14.5548 8.00087 14.5548C5.86465 14.5548 5.61148 14.5465 4.76813 14.5082C3.98811 14.4722 3.56477 14.3418 3.28259 14.2323C2.90925 14.0873 2.64258 13.914 2.36257 13.634C2.08256 13.354 1.90923 13.088 1.76389 12.7145C1.65439 12.4328 1.52388 12.0094 1.48838 11.2294C1.45005 10.3861 1.44238 10.1327 1.44238 7.99635C1.44238 5.85997 1.45005 5.60796 1.48838 4.76461C1.52405 3.98459 1.65439 3.56125 1.76389 3.27924C1.90889 2.9059 2.08256 2.63923 2.36257 2.35922C2.64258 2.07921 2.90925 1.90587 3.28259 1.76054C3.5646 1.65054 3.98811 1.52053 4.76813 1.4847C5.50614 1.45136 5.79215 1.44136 7.28319 1.4397V1.4417C7.4225 1.44148 7.57237 1.44155 7.73409 1.44162ZM12.2711 2.77011C11.741 2.77011 11.311 3.19962 11.311 3.7298C11.311 4.25981 11.741 4.68982 12.2711 4.68982C12.8011 4.68982 13.2311 4.25981 13.2311 3.7298C13.2311 3.19979 12.8011 2.76978 12.2711 2.76978V2.77011ZM3.89258 8.00003C3.89258 5.7312 5.73203 3.89169 8.00084 3.8916C10.2697 3.8916 12.1088 5.73114 12.1088 8.00003C12.1088 10.2689 10.2699 12.1076 8.00101 12.1076C5.73212 12.1076 3.89258 10.2689 3.89258 8.00003ZM10.6674 7.99998C10.6674 6.52711 9.47342 5.33325 8.00071 5.33325C6.52785 5.33325 5.33398 6.52711 5.33398 7.99998C5.33398 9.47268 6.52785 10.6667 8.00071 10.6667C9.47342 10.6667 10.6674 9.47268 10.6674 7.99998Z" fill="white"/>
</svg>
