<svg width="16" height="16" viewBox="0 0 16 16" fill="none" xmlns="http://www.w3.org/2000/svg">
<mask id="mask0" mask-type="alpha" maskUnits="userSpaceOnUse" x="0" y="0" width="17" height="17">
<path fill-rule="evenodd" clip-rule="evenodd" d="M8.00085 0C5.82814 0 5.55546 0.00950022 4.70211 0.0483345C3.85042 0.0873354 3.26908 0.222172 2.7604 0.42001C2.23422 0.624348 1.78788 0.897687 1.3432 1.34253C0.898188 1.78721 0.624848 2.23355 0.419843 2.75956C0.221505 3.26841 0.086502 3.84992 0.0481678 4.70128C0.0100002 5.55463 0 5.82747 0 8.00019C0 10.1729 0.00966687 10.4447 0.0483345 11.2981C0.087502 12.1498 0.222339 12.7311 0.42001 13.2398C0.624515 13.766 0.897854 14.2123 1.3427 14.657C1.78721 15.102 2.23355 15.376 2.7594 15.5804C3.26841 15.7782 3.84992 15.913 4.70144 15.952C5.5548 15.9909 5.8273 16.0004 7.99985 16.0004C10.1727 16.0004 10.4446 15.9909 11.2979 15.952C12.1496 15.913 12.7316 15.7782 13.2406 15.5804C13.7667 15.376 14.2123 15.102 14.6568 14.657C15.1019 14.2123 15.3752 13.766 15.5802 13.24C15.7769 12.7311 15.9119 12.1496 15.9519 11.2983C15.9902 10.4449 16.0002 10.1729 16.0002 8.00019C16.0002 5.82747 15.9902 5.5548 15.9519 4.70144C15.9119 3.84976 15.7769 3.26841 15.5802 2.75973C15.3752 2.23355 15.1019 1.78721 14.6568 1.34253C14.2118 0.897521 13.7668 0.624181 13.2401 0.42001C12.7301 0.222172 12.1485 0.0873354 11.2968 0.0483345C10.4434 0.00950022 10.1717 0 7.99835 0H8.00085ZM7.73403 1.44152H7.73416L8.0008 1.4416C10.1369 1.4416 10.39 1.44927 11.2335 1.4876C12.0136 1.52327 12.4369 1.6536 12.7189 1.76311C13.0923 1.90811 13.3584 2.08145 13.6383 2.36145C13.9183 2.64146 14.0916 2.90813 14.2369 3.28148C14.3465 3.56315 14.477 3.98649 14.5125 4.76651C14.5508 5.60986 14.5591 5.8632 14.5591 7.99825C14.5591 10.1333 14.5508 10.3866 14.5125 11.23C14.4768 12.01 14.3465 12.4334 14.2369 12.715C14.0919 13.0884 13.9183 13.3542 13.6383 13.6341C13.3583 13.9141 13.0924 14.0874 12.7189 14.2324C12.4372 14.3424 12.0136 14.4724 11.2335 14.5081C10.3902 14.5464 10.1369 14.5547 8.0008 14.5547C5.86459 14.5547 5.61141 14.5464 4.76806 14.5081C3.98804 14.4721 3.5647 14.3417 3.28253 14.2322C2.90918 14.0872 2.64251 13.9139 2.3625 13.6339C2.0825 13.3539 1.90916 13.0879 1.76382 12.7144C1.65432 12.4327 1.52382 12.0093 1.48832 11.2293C1.44998 10.386 1.44232 10.1326 1.44232 7.99625C1.44232 5.85987 1.44998 5.60786 1.48832 4.76451C1.52399 3.98449 1.65432 3.56115 1.76382 3.27914C1.90883 2.9058 2.0825 2.63913 2.3625 2.35912C2.64251 2.07911 2.90918 1.90578 3.28253 1.76044C3.56453 1.65044 3.98804 1.52043 4.76806 1.4846C5.50608 1.45127 5.79209 1.44127 7.28312 1.4396V1.4416C7.42243 1.44138 7.5723 1.44145 7.73403 1.44152ZM11.3112 3.72968C11.3112 3.1995 11.7412 2.76999 12.2712 2.76999V2.76966C12.8012 2.76966 13.2313 3.19967 13.2313 3.72968C13.2313 4.25969 12.8012 4.6897 12.2712 4.6897C11.7412 4.6897 11.3112 4.25969 11.3112 3.72968ZM8.00064 3.89167C5.73183 3.89176 3.89237 5.73127 3.89237 8.0001C3.89237 10.269 5.73192 12.1077 8.0008 12.1077C10.2697 12.1077 12.1086 10.269 12.1086 8.0001C12.1086 5.73122 10.2695 3.89167 8.00064 3.89167ZM10.6675 8.0001C10.6675 6.52723 9.47351 5.33337 8.0008 5.33337C6.52794 5.33337 5.33407 6.52723 5.33407 8.0001C5.33407 9.4728 6.52794 10.6668 8.0008 10.6668C9.47351 10.6668 10.6675 9.4728 10.6675 8.0001Z" fill="white"/>
</mask>
<g mask="url(#mask0)">
<rect width="16" height="16" fill="white"/>
<rect width="16" height="16" fill="white"/>
<rect width="16" height="16" fill="white"/>
<rect width="16" height="16" fill="white"/>
</g>
</svg>
