<svg width="44" height="44" viewBox="0 0 44 44" fill="none" xmlns="http://www.w3.org/2000/svg">
<path d="M43.3142 8.90819C42.6993 8.63318 41.9613 8.79819 41.6539 9.34821L28.8018 30.6343L22.96 21.3938L29.3553 11.3283C29.6627 10.7783 29.4783 10.1183 28.8633 9.84324C28.2484 9.56822 27.5105 9.73323 27.203 10.2833L21.5456 19.1387L16.1343 10.5583C15.2734 9.23821 15.0889 7.75313 15.5193 6.32306C15.9498 4.89298 16.9952 3.68292 18.4095 2.91288C21.3612 1.42781 25.2352 2.30785 26.957 5.00299C27.2645 5.44301 27.8179 5.66302 28.3099 5.49802C28.8633 5.38801 29.2323 4.94799 29.2323 4.45296V1.48281C29.2323 0.877778 28.6788 0.382752 28.0024 0.382752C27.326 0.382752 26.7726 0.877778 26.7726 1.48281V1.59281C24.0669 -0.277282 20.3158 -0.552296 17.1796 1.04279C15.1504 2.08784 13.736 3.73792 13.1211 5.77303C12.5062 7.80813 12.8136 9.89824 13.982 11.6583L20.1313 21.3938L15.0274 29.4242L2.29832 9.34821C1.99085 8.79819 1.19144 8.63318 0.638003 8.90819C0.0230721 9.18321 -0.161407 9.89824 0.146058 10.3933L13.9205 32.1194C14.1665 32.4494 14.5354 32.6694 14.9659 32.6694C15.3963 32.6694 15.8268 32.4494 16.0113 32.1194L21.5456 23.5939L27.7564 33.3845C28.6173 34.7045 28.8018 36.1896 28.3714 37.6197C27.9409 39.0497 26.8955 40.2598 25.4812 41.0298C22.468 42.5699 18.6555 41.6349 16.9337 38.9947C16.5647 38.4447 15.8268 38.2797 15.2734 38.6097C14.6584 38.9397 14.4739 39.5998 14.8429 40.0948C16.4417 42.6249 19.3934 44 22.4066 44C23.8824 44 25.3582 43.67 26.7111 42.9549C28.7403 41.9099 30.1547 40.2598 30.7696 38.2247C31.323 36.4096 31.1386 34.5395 30.2162 32.8894L43.8676 10.3933C44.1751 9.89824 43.9291 9.23821 43.3142 8.90819Z" fill="white"/>
</svg>
